<mxfile host="app.diagrams.net" modified="2023-11-13T15:21:29.493Z" agent="Mozilla/5.0 (Windows NT 10.0; Win64; x64) AppleWebKit/537.36 (KHTML, like Gecko) Chrome/110.0.0.0 Safari/537.36" etag="G-Qh2Qub4HBJqIqGT5Oc" version="22.1.0" type="device">
  <diagram name="Página-1" id="1ZOHZFwNbqFr6bOstylK">
    <mxGraphModel dx="954" dy="616" grid="1" gridSize="10" guides="1" tooltips="1" connect="1" arrows="1" fold="1" page="1" pageScale="1" pageWidth="1000" pageHeight="1169" math="0" shadow="0">
      <root>
        <mxCell id="0" />
        <mxCell id="1" parent="0" />
        <mxCell id="yF_IWNA5UAkX2lCii83x-1" value="&lt;font style=&quot;font-size: 18px&quot;&gt;BUS(&lt;u style=&quot;border-color: var(--border-color); color: rgb(255, 0, 0);&quot;&gt;Matrícula_bus&lt;/u&gt;&lt;font color=&quot;#ff0000&quot;&gt;,&amp;nbsp;&lt;/font&gt;Modelo, Numero plazas)&lt;/font&gt;" style="text;html=1;align=left;verticalAlign=middle;resizable=0;points=[];autosize=1;" vertex="1" parent="1">
          <mxGeometry x="240" y="160" width="390" height="40" as="geometry" />
        </mxCell>
        <mxCell id="yF_IWNA5UAkX2lCii83x-2" value="&lt;font style=&quot;font-size: 18px&quot;&gt;VIAJE(&lt;u style=&quot;border-color: var(--border-color); color: rgb(255, 0, 0);&quot;&gt;Matrícula_bus&lt;/u&gt;,&amp;nbsp;&lt;u style=&quot;border-color: var(--border-color); color: rgb(255, 0, 0);&quot;&gt;DNI_conductor, &lt;/u&gt;&lt;span style=&quot;border-color: var(--border-color);&quot;&gt;fecha&lt;/span&gt;)&lt;/font&gt;" style="text;html=1;align=left;verticalAlign=middle;resizable=0;points=[];autosize=1;" vertex="1" parent="1">
          <mxGeometry x="240" y="250" width="380" height="40" as="geometry" />
        </mxCell>
        <mxCell id="yF_IWNA5UAkX2lCii83x-3" value="&lt;font style=&quot;font-size: 18px&quot;&gt;CONDUCTOR(&lt;u style=&quot;border-color: var(--border-color); color: rgb(255, 0, 0);&quot;&gt;DNI_conductor,&lt;/u&gt;&lt;span style=&quot;border-color: var(--border-color);&quot;&gt;&amp;nbsp;Nombre, Apellidos, Nº carné&lt;/span&gt;)&lt;/font&gt;" style="text;html=1;align=left;verticalAlign=middle;resizable=0;points=[];autosize=1;" vertex="1" parent="1">
          <mxGeometry x="240" y="330" width="510" height="40" as="geometry" />
        </mxCell>
        <mxCell id="yF_IWNA5UAkX2lCii83x-6" style="edgeStyle=orthogonalEdgeStyle;rounded=0;orthogonalLoop=1;jettySize=auto;html=1;entryX=0.056;entryY=0.95;entryDx=0;entryDy=0;entryPerimeter=0;" edge="1" parent="1" source="yF_IWNA5UAkX2lCii83x-2" target="yF_IWNA5UAkX2lCii83x-1">
          <mxGeometry relative="1" as="geometry">
            <Array as="points">
              <mxPoint x="360" y="225" />
              <mxPoint x="262" y="225" />
            </Array>
          </mxGeometry>
        </mxCell>
        <mxCell id="yF_IWNA5UAkX2lCii83x-7" style="edgeStyle=orthogonalEdgeStyle;rounded=0;orthogonalLoop=1;jettySize=auto;html=1;entryX=0.129;entryY=0.025;entryDx=0;entryDy=0;entryPerimeter=0;" edge="1" parent="1" source="yF_IWNA5UAkX2lCii83x-2" target="yF_IWNA5UAkX2lCii83x-3">
          <mxGeometry relative="1" as="geometry">
            <Array as="points">
              <mxPoint x="480" y="310" />
              <mxPoint x="306" y="310" />
            </Array>
          </mxGeometry>
        </mxCell>
      </root>
    </mxGraphModel>
  </diagram>
</mxfile>
